<?xml version="1.0" encoding="UTF-8"?>
<svg version="1.1" xmlns="http://www.w3.org/2000/svg" width="290" height="78">
<path d="M0 0 C2 0.6875 2 0.6875 4 2.6875 C5.134375 2.64625 6.26875 2.605 7.4375 2.5625 C11 2.6875 11 2.6875 12.9375 4.4375 C14 6.6875 14 6.6875 14 10.6875 C17.3 10.0275 20.6 9.3675 24 8.6875 C23.67 11.3275 23.34 13.9675 23 16.6875 C24.485 17.1825 24.485 17.1825 26 17.6875 C26 18.3475 26 19.0075 26 19.6875 C23.03 20.3475 20.06 21.0075 17 21.6875 C17.18175781 22.37787354 17.36351563 23.06824707 17.55078125 23.77954102 C18.37599491 26.93413181 19.18808941 30.09196038 20 33.25 C20.28617187 34.33603516 20.57234375 35.42207031 20.8671875 36.54101562 C24.44953275 50.57186787 24.44953275 50.57186787 21.125 57.5 C20.77695313 58.24894531 20.42890625 58.99789062 20.0703125 59.76953125 C18.79280196 62.05879284 17.76765564 63.43854612 15.22557068 64.26295471 C14.51103226 64.41538132 13.79649384 64.56780792 13.06030273 64.72485352 C12.24863144 64.90166153 11.43696014 65.07846954 10.60069275 65.26063538 C9.28047874 65.53574196 9.28047874 65.53574196 7.93359375 65.81640625 C7.02553482 66.01096909 6.11747589 66.20553192 5.18190002 66.4059906 C3.25508418 66.81712985 1.32747915 67.224585 -0.60083008 67.62866211 C-3.52819482 68.24280301 -6.45266884 68.86942085 -9.37695312 69.49804688 C-11.25244461 69.89658493 -13.12809116 70.29439409 -15.00390625 70.69140625 C-15.8698793 70.87683487 -16.73585236 71.06226349 -17.62806702 71.25331116 C-32.26627169 74.30224828 -32.26627169 74.30224828 -36.94140625 72.64453125 C-39.70068072 70.02138797 -40.12030047 68.09508739 -40.9375 64.375 C-41.08735352 63.70855469 -41.23720703 63.04210937 -41.39160156 62.35546875 C-41.95298002 59.80435243 -42.47532429 57.24642208 -43 54.6875 C-43.24959473 53.51268066 -43.49918945 52.33786133 -43.75634766 51.12744141 C-44.45820904 47.82151243 -45.15134439 44.51417627 -45.83401489 41.20425415 C-46.1092771 39.86974438 -46.38616908 38.53556963 -46.6647644 37.20175171 C-50.39775268 19.21420676 -50.39775268 19.21420676 -47.375 13.75 C-44.55599012 11.30191247 -42.67852334 10.93830841 -39 10.6875 C-38.896875 10.048125 -38.79375 9.40875 -38.6875 8.75 C-38.3471875 7.7290625 -38.3471875 7.7290625 -38 6.6875 C-37.01 6.3575 -36.02 6.0275 -35 5.6875 C-34.34 6.0175 -33.68 6.3475 -33 6.6875 C-33 7.6775 -33 8.6675 -33 9.6875 C-31.02 9.3575 -29.04 9.0275 -27 8.6875 C-26.896875 8.048125 -26.79375 7.40875 -26.6875 6.75 C-26.460625 6.069375 -26.23375 5.38875 -26 4.6875 C-25.01 4.3575 -24.02 4.0275 -23 3.6875 C-22.34 4.0175 -21.68 4.3475 -21 4.6875 C-21 5.6775 -21 6.6675 -21 7.6875 C-19.05000871 7.49278889 -19.05000871 7.49278889 -17 6.6875 C-16.67 6.0275 -16.34 5.3675 -16 4.6875 C-15 2.6875 -15 2.6875 -12.875 1.9375 C-12.25625 1.855 -11.6375 1.7725 -11 1.6875 C-10.34 3.0075 -9.68 4.3275 -9 5.6875 C-7.35 5.3575 -5.7 5.0275 -4 4.6875 C-4 3.3675 -4 2.0475 -4 0.6875 C-2 -0.3125 -2 -0.3125 0 0 Z " fill="#044482" transform="translate(53,3.3125)"/>
<path d="M0 0 C1.34868164 -0.0309375 1.34868164 -0.0309375 2.72460938 -0.0625 C9.23235323 -0.10069659 13.66790827 0.75233003 18.5625 5.375 C20.87441249 9.17314194 21.59232083 12.90049685 22.3125 17.25 C22.84875 16.46625 23.385 15.6825 23.9375 14.875 C26.71322034 11.80709857 28.27922669 11.0408379 32.3125 10.25 C36.54080914 10.53666503 38.76844712 10.88729808 42.3125 13.25 C42.6425 12.59 42.9725 11.93 43.3125 11.25 C46.2825 11.25 49.2525 11.25 52.3125 11.25 C53.6325 16.53 54.9525 21.81 56.3125 27.25 C57.9625 21.97 59.6125 16.69 61.3125 11.25 C63.9525 11.25 66.5925 11.25 69.3125 11.25 C68.79042462 16.98009559 67.65650381 21.70686407 65.4375 27 C65.18097656 27.64582031 64.92445313 28.29164062 64.66015625 28.95703125 C61.86223119 35.80421468 61.86223119 35.80421468 59.3125 38.25 C56.83203125 38.640625 56.83203125 38.640625 54.125 38.5 C53.22394531 38.46390625 52.32289063 38.4278125 51.39453125 38.390625 C50.70746094 38.34421875 50.02039063 38.2978125 49.3125 38.25 C47.81769694 34.69496838 46.67528704 31.16415112 45.6875 27.4375 C45.42710937 26.46167969 45.16671875 25.48585938 44.8984375 24.48046875 C44.60839844 23.37638672 44.60839844 23.37638672 44.3125 22.25 C43.673125 23.03375 43.03375 23.8175 42.375 24.625 C38.98806897 28.08045276 34.95112668 28.57290199 30.3125 29.25 C30.3125 29.91 30.3125 30.57 30.3125 31.25 C34.49774749 31.33206368 38.22331136 31.09189178 42.3125 30.25 C43.3125 31.25 43.3125 31.25 43.375 34.3125 C43.354375 35.281875 43.33375 36.25125 43.3125 37.25 C38.49536198 39.81914028 33.62771932 39.78414889 28.3125 39.25 C25.375 38.25 25.375 38.25 23.3125 36.25 C22.03223472 33.61140448 21.19013002 31.06765426 20.3125 28.25 C19.86519531 28.80429687 19.41789062 29.35859375 18.95703125 29.9296875 C18.35246094 30.65414062 17.74789062 31.37859375 17.125 32.125 C16.53332031 32.84429687 15.94164063 33.56359375 15.33203125 34.3046875 C11.18195033 38.30225094 6.97721905 38.47033679 1.47460938 38.42578125 C0.24967773 38.40064453 0.24967773 38.40064453 -1 38.375 C-1.83595703 38.36597656 -2.67191406 38.35695312 -3.53320312 38.34765625 C-5.58475969 38.32420989 -7.63616777 38.28834266 -9.6875 38.25 C-9.85473026 32.99912156 -10.01532815 27.74809906 -10.16967773 22.49682617 C-10.22317402 20.70900968 -10.27850904 18.92124725 -10.33569336 17.13354492 C-10.41739235 14.56961734 -10.49255945 12.00557047 -10.56640625 9.44140625 C-10.59344131 8.6372377 -10.62047638 7.83306915 -10.64833069 7.00453186 C-10.70035627 5.08701578 -10.69937441 3.16818497 -10.6875 1.25 C-8.40719092 -1.03030908 -3.0592977 0.017175 0 0 Z M-0.6875 7.25 C-0.6875 15.17 -0.6875 23.09 -0.6875 31.25 C6.91292176 31.11737426 6.91292176 31.11737426 9.75 27.875 C12.39440667 23.43239679 12.86874351 19.33565496 12.3125 14.25 C11.04765069 11.3408466 10.05799933 9.78984434 7.5 7.9375 C4.74067162 6.9501734 4.74067162 6.9501734 -0.6875 7.25 Z M32.3125 17.25 C30.59538757 19.69496043 30.59538757 19.69496043 29.3125 22.25 C32.7775 21.755 32.7775 21.755 36.3125 21.25 C35.9825 19.93 35.6525 18.61 35.3125 17.25 C34.3225 17.25 33.3325 17.25 32.3125 17.25 Z M20.3125 25.25 C21.3125 27.25 21.3125 27.25 21.3125 27.25 Z " fill="#EBECED" transform="translate(97.6875,19.75)"/>
<path d="M0 0 C2.64 0 5.28 0 8 0 C8 2.31 8 4.62 8 7 C9.65 7 11.3 7 13 7 C13 9.31 13 11.62 13 14 C11.02 14 9.04 14 7 14 C6.67 18.62 6.34 23.24 6 28 C7.65 27.34 9.3 26.68 11 26 C11.8940702 23.57189941 11.8940702 23.57189941 12.0625 20.75 C12.76320366 15.8832946 13.56484715 12.71367875 17 9 C20.81034318 6.7713087 23.20697538 5.98632716 27.625 6.0625 C31.47819522 7.132832 33.40647588 7.93492604 36 11 C36.71364934 13.82558721 36.70384917 16.17296947 36 19 C32.36132138 23.46031572 27.42404744 24.10190064 22 25 C22 25.66 22 26.32 22 27 C25.96 26.67 29.92 26.34 34 26 C34 28.31 34 30.62 34 33 C29.2638135 35.52596614 24.23325911 35.85969009 19 35 C16.48988987 33.57908953 15.01431946 32.12033628 13 30 C12.731875 30.639375 12.46375 31.27875 12.1875 31.9375 C11 34 11 34 8 35 C1.85449922 35.44694551 1.85449922 35.44694551 -1.203125 33.84765625 C-3 32 -3 32 -3.42578125 29.29296875 C-3.38839844 28.26816406 -3.35101563 27.24335937 -3.3125 26.1875 C-3.27769531 25.12402344 -3.24289063 24.06054688 -3.20703125 22.96484375 C-2.99473629 19.9246197 -2.66164447 16.97740013 -2 14 C-3.32 14 -4.64 14 -6 14 C-5.67 14.66 -5.34 15.32 -5 16 C-4.4906414 22.49432219 -5.76558401 27.34663101 -10 32.375 C-13.03248831 34.83889675 -15.65517308 35.15560854 -19.4375 35.1875 C-20.58025391 35.20876953 -20.58025391 35.20876953 -21.74609375 35.23046875 C-25.29603504 34.86747649 -27.37456234 33.69244884 -29.75 31.0625 C-32.08481347 25.342207 -31.81348778 19.35483306 -29.8125 13.5625 C-26.84624037 9.3688226 -24.16283095 6.97744486 -19.0625 6.0625 C-13.71902594 5.61889083 -10.32023597 8.11984269 -6 11 C-5.67 9.68 -5.34 8.36 -5 7 C-3.68 7 -2.36 7 -1 7 C-0.67 4.69 -0.34 2.38 0 0 Z M24 13 C22.28288757 15.44496043 22.28288757 15.44496043 21 18 C24.465 17.505 24.465 17.505 28 17 C27.67 15.68 27.34 14.36 27 13 C26.01 13 25.02 13 24 13 Z M-21 15 C-21.96070434 17.88211302 -22.10581883 19.69850044 -22.0625 22.6875 C-22.05347656 23.49574219 -22.04445312 24.30398437 -22.03515625 25.13671875 C-22.02355469 25.75160156 -22.01195312 26.36648437 -22 27 C-19.60280568 27.67958603 -19.60280568 27.67958603 -17 28 C-14.56513393 25.56513393 -14.55790187 24.42574894 -14.1875 21.0625 C-14.02314453 19.74958984 -14.02314453 19.74958984 -13.85546875 18.41015625 C-13.77456777 15.93237528 -13.77456777 15.93237528 -15.42578125 14.18359375 C-18.09698272 12.17522143 -17.85771864 12.90514576 -21 15 Z " fill="#02ABEE" transform="translate(230,24)"/>
<path d="M0 0 C1.216875 0.144375 2.43375 0.28875 3.6875 0.4375 C6.89370267 4.55976058 9.16292194 9.13643608 11.4375 13.8125 C11.75332031 14.45316406 12.06914062 15.09382813 12.39453125 15.75390625 C13.16257866 17.31327523 13.92557685 18.8751295 14.6875 20.4375 C14.80867188 19.24511719 14.92984375 18.05273438 15.0546875 16.82421875 C15.22352673 15.25776592 15.39282132 13.69136212 15.5625 12.125 C15.64113281 11.33931641 15.71976563 10.55363281 15.80078125 9.74414062 C15.88457031 8.98681641 15.96835938 8.22949219 16.0546875 7.44921875 C16.16466064 6.40447388 16.16466064 6.40447388 16.27685547 5.33862305 C16.6875 3.4375 16.6875 3.4375 18.6875 0.4375 C20.9975 0.7675 23.3075 1.0975 25.6875 1.4375 C25.89502677 9.38404605 25.08350308 17.10952242 24.1875 25 C24.04441406 26.29486328 23.90132812 27.58972656 23.75390625 28.92382812 C23.40279163 32.0955635 23.04721319 35.26673028 22.6875 38.4375 C19.7175 38.4375 16.7475 38.4375 13.6875 38.4375 C10.3875 32.1675 7.0875 25.8975 3.6875 19.4375 C3.0275 25.7075 2.3675 31.9775 1.6875 38.4375 C-1.2825 38.4375 -4.2525 38.4375 -7.3125 38.4375 C-7.04893632 34.45373688 -6.78229336 30.47019232 -6.51293945 26.48681641 C-6.37748306 24.47438998 -6.24438356 22.46180535 -6.11132812 20.44921875 C-4.7667794 0.62957464 -4.7667794 0.62957464 0 0 Z " fill="#03A8EA" transform="translate(174.3125,19.5625)"/>
<path d="M0 0 C1.34868164 -0.0309375 1.34868164 -0.0309375 2.72460938 -0.0625 C8.02207364 -0.09359297 11.74733218 0.25410862 16.3125 3.25 C20.67456386 7.96574471 21.56815549 11.55829283 21.45703125 17.78125 C21.04891132 24.75237964 19.71148945 29.54551599 15.04296875 34.83984375 C10.15830344 38.82034979 4.98105322 38.49773669 -1 38.375 C-1.83595703 38.36597656 -2.67191406 38.35695312 -3.53320312 38.34765625 C-5.58475969 38.32420989 -7.63616777 38.28834266 -9.6875 38.25 C-9.85473026 32.99912156 -10.01532815 27.74809906 -10.16967773 22.49682617 C-10.22317402 20.70900968 -10.27850904 18.92124725 -10.33569336 17.13354492 C-10.41739235 14.56961734 -10.49255945 12.00557047 -10.56640625 9.44140625 C-10.59344131 8.6372377 -10.62047638 7.83306915 -10.64833069 7.00453186 C-10.70035627 5.08701578 -10.69937441 3.16818497 -10.6875 1.25 C-8.40719092 -1.03030908 -3.0592977 0.017175 0 0 Z M-0.6875 7.25 C-0.6875 15.17 -0.6875 23.09 -0.6875 31.25 C6.91292176 31.11737426 6.91292176 31.11737426 9.75 27.875 C12.39440667 23.43239679 12.86874351 19.33565496 12.3125 14.25 C11.04765069 11.3408466 10.05799933 9.78984434 7.5 7.9375 C4.74067162 6.9501734 4.74067162 6.9501734 -0.6875 7.25 Z " fill="#F5F6F6" transform="translate(97.6875,19.75)"/>
<path d="M0 0 C2 1 2 1 2.86962891 3.57275391 C3.15241699 4.69601074 3.43520508 5.81926758 3.7265625 6.9765625 C4.0359375 8.20503906 4.3453125 9.43351562 4.6640625 10.69921875 C4.82165039 11.3442334 4.97923828 11.98924805 5.14160156 12.65380859 C5.61864015 14.59906594 6.11389212 16.53982745 6.609375 18.48046875 C6.91617188 19.71667969 7.22296875 20.95289063 7.5390625 22.2265625 C7.95986084 23.92159912 7.95986084 23.92159912 8.38916016 25.65087891 C9.38757994 31.12502864 9.5540019 35.75060188 7.125 40.8125 C6.77695313 41.56144531 6.42890625 42.31039062 6.0703125 43.08203125 C4.79280196 45.37129284 3.76765564 46.75104612 1.22557068 47.57545471 C0.51103226 47.72788132 -0.20350616 47.88030792 -0.93969727 48.03735352 C-1.75136856 48.21416153 -2.56303986 48.39096954 -3.39930725 48.57313538 C-4.27944992 48.75653976 -5.15959259 48.93994415 -6.06640625 49.12890625 C-6.97446518 49.32346909 -7.88252411 49.51803192 -8.81809998 49.7184906 C-10.74491582 50.12962985 -12.67252085 50.537085 -14.60083008 50.94116211 C-17.52819482 51.55530301 -20.45266884 52.18192085 -23.37695312 52.81054688 C-25.25244461 53.20908493 -27.12809116 53.60689409 -29.00390625 54.00390625 C-29.8698793 54.18933487 -30.73585236 54.37476349 -31.62806702 54.56581116 C-46.20708304 57.6024201 -46.20708304 57.6024201 -50.9296875 56.015625 C-53.73952357 53.28001102 -54.37500225 50.47043004 -55.125 46.75 C-55.28258789 46.04415771 -55.44017578 45.33831543 -55.60253906 44.61108398 C-55.9266907 43.14045058 -56.24104463 41.66762567 -56.54589844 40.19287109 C-56.97966163 38.09821463 -57.44292916 36.01230156 -57.9140625 33.92578125 C-59.37980227 27.15187176 -60.36468679 20.92904897 -60 14 C-59.01 14.495 -59.01 14.495 -58 15 C-58 15.66 -58 16.32 -58 17 C-57.34 17 -56.68 17 -56 17 C-54.42766549 20.65964232 -53.40745426 24.21575523 -52.5625 28.10546875 C-52.17964844 29.82733398 -52.17964844 29.82733398 -51.7890625 31.58398438 C-51.26057191 33.99751194 -50.7345523 36.41158182 -50.2109375 38.82617188 C-49.95570312 39.97021484 -49.70046875 41.11425781 -49.4375 42.29296875 C-49.20933594 43.3399292 -48.98117188 44.38688965 -48.74609375 45.46557617 C-48.17823281 48.14085848 -48.17823281 48.14085848 -46 50 C-38.15815299 50.25702712 -29.9148202 48.00227729 -22.25 46.5625 C-20.46142578 46.23668945 -20.46142578 46.23668945 -18.63671875 45.90429688 C-16.90615234 45.58235352 -16.90615234 45.58235352 -15.140625 45.25390625 C-13.58649902 44.96495483 -13.58649902 44.96495483 -12.00097656 44.67016602 C-8.94551619 44.04636913 -8.94551619 44.04636913 -5.86621094 42.92163086 C-3 42 -3 42 1 42 C1 40.35 1 38.7 1 37 C-3.65835376 37.44365274 -8.13536578 37.9709168 -12.6875 39.0625 C-16.19334761 39.89283233 -19.37990864 40.18564571 -23 40 C-20.11461141 38.07640761 -18.70239754 37.57939542 -15.40234375 36.96484375 C-14.51869141 36.79533203 -13.63503906 36.62582031 -12.72460938 36.45117188 C-11.80486328 36.28166016 -10.88511719 36.11214844 -9.9375 35.9375 C-8.11280565 35.59497189 -6.28856119 35.25003568 -4.46484375 34.90234375 C-3.656521 34.75273193 -2.84819824 34.60312012 -2.01538086 34.44897461 C0.05596086 34.07286351 0.05596086 34.07286351 2 33 C1.49928765 25.66197417 0.17515349 18.59341206 -1.37890625 11.41796875 C-2.71396498 4.07094746 -2.71396498 4.07094746 0 0 Z " fill="#082A5D" transform="translate(67,20)"/>
<path d="M0 0 C0.66 0 1.32 0 2 0 C2.15557373 0.71953857 2.31114746 1.43907715 2.47143555 2.18041992 C6.19679568 21.07817759 6.19679568 21.07817759 13 39 C13.35707031 39.76570313 13.71414062 40.53140625 14.08203125 41.3203125 C16.67793229 43.59370853 18.85768058 43.48025542 22.21337891 43.328125 C27.95721483 42.65178757 33.55984882 41.30615636 39.1875 40 C41.65884289 39.43175751 44.13146671 38.86905107 46.60546875 38.3125 C47.68981201 38.06113281 48.77415527 37.80976562 49.89135742 37.55078125 C52.99690399 37.00054854 55.85344282 36.90073766 59 37 C58.67 38.98 58.34 40.96 58 43 C50.27114494 45.5447057 42.50072393 47.18326777 34.5 48.625 C33.34113281 48.8415625 32.18226562 49.058125 30.98828125 49.28125 C25.79016654 50.2327693 20.58200901 51.1345886 15.34375 51.8359375 C14.57224609 51.94212402 13.80074219 52.04831055 13.00585938 52.15771484 C11 52 11 52 9.35400391 50.98022461 C7.3555541 48.05750077 6.74289411 44.88620714 5.9921875 41.48046875 C5.82123566 40.74427811 5.65028381 40.00808746 5.47415161 39.24958801 C4.93087545 36.89777205 4.40299649 34.5427879 3.875 32.1875 C3.51267729 30.61371131 3.14940619 29.04014063 2.78515625 27.46679688 C-1.29533209 9.7122967 -1.29533209 9.7122967 -1 1 C-0.67 0.67 -0.34 0.34 0 0 Z " fill="#ABDAEA" transform="translate(10,19)"/>
<path d="M0 0 C-0.33 2.31 -0.66 4.62 -1 7 C-3.97 6.67 -6.94 6.34 -10 6 C-7.14889194 9.05176177 -7.14889194 9.05176177 -3.875 11.0625 C-1 13 -1 13 0 15 C0.375 17.8125 0.375 17.8125 0 21 C-2.172635 23.57285724 -3.97993838 25.48996919 -7 27 C-8.62165752 27.12148305 -10.24884327 27.17543652 -11.875 27.1875 C-13.17050781 27.20876953 -13.17050781 27.20876953 -14.4921875 27.23046875 C-17.1241288 26.98859252 -18.73980544 26.32983541 -21 25 C-20.67 22.69 -20.34 20.38 -20 18 C-16.37 18.66 -12.74 19.32 -9 20 C-9 19.01 -9 18.02 -9 17 C-9.9075 16.773125 -10.815 16.54625 -11.75 16.3125 C-15.58418636 14.76407859 -16.99560868 13.60790437 -19 10 C-19 5.99123025 -18.63019245 3.82576942 -16.1875 0.625 C-11.44739348 -2.89622198 -5.29347588 -2.64673794 0 0 Z " fill="#02ACEF" transform="translate(286,32)"/>
<path d="M0 0 C2.64 0 5.28 0 8 0 C7.47792462 5.73009559 6.34400381 10.45686407 4.125 15.75 C3.74021484 16.71873047 3.74021484 16.71873047 3.34765625 17.70703125 C1.93042056 21.17534171 0.59966738 24.28340274 -2 27 C-4.48046875 27.390625 -4.48046875 27.390625 -7.1875 27.25 C-8.08855469 27.21390625 -8.98960937 27.1778125 -9.91796875 27.140625 C-10.60503906 27.09421875 -11.29210937 27.0478125 -12 27 C-12.64745092 23.79199093 -13.29266893 20.58353661 -13.9375 17.375 C-14.11990234 16.47136719 -14.30230469 15.56773438 -14.49023438 14.63671875 C-15.40068734 10.10100762 -16.2787222 5.57062353 -17 1 C-14.69 1 -12.38 1 -10 1 C-9.34865075 2.56020867 -8.70417036 4.12328579 -8.0625 5.6875 C-7.70285156 6.55761719 -7.34320313 7.42773438 -6.97265625 8.32421875 C-6 11 -6 11 -5 16 C-3.35 10.72 -1.7 5.44 0 0 Z " fill="#F0F3F4" transform="translate(159,31)"/>
<path d="M0 0 C3.625 0.3125 3.625 0.3125 5.5625 2.0625 C6.625 4.3125 6.625 4.3125 6.625 8.3125 C9.925 7.6525 13.225 6.9925 16.625 6.3125 C16.295 8.9525 15.965 11.5925 15.625 14.3125 C16.615 14.6425 17.605 14.9725 18.625 15.3125 C18.625 15.9725 18.625 16.6325 18.625 17.3125 C15.00526598 18.62876692 12.52932869 19.3125 8.625 19.3125 C8.295 17.9925 7.965 16.6725 7.625 15.3125 C6.635 16.7975 6.635 16.7975 5.625 18.3125 C4.965 18.3125 4.305 18.3125 3.625 18.3125 C2.635 14.0225 1.645 9.7325 0.625 5.3125 C-0.365 5.3125 -1.355 5.3125 -2.375 5.3125 C-3.035 6.3025 -3.695 7.2925 -4.375 8.3125 C-4.41741723 5.97955225 -4.41592937 3.64547433 -4.375 1.3125 C-3.375 0.3125 -3.375 0.3125 0 0 Z " fill="#072C5F" transform="translate(60.375,5.6875)"/>
<path d="M0 0 C0.99 0.33 1.98 0.66 3 1 C3.33 4.63 3.66 8.26 4 12 C2.35 11.67 0.7 11.34 -1 11 C-2.3125 8.9375 -2.3125 8.9375 -3 7 C-4.32 7.33 -5.64 7.66 -7 8 C-7 8.99 -7 9.98 -7 11 C-7.020625 12.19625 -7.04125 13.3925 -7.0625 14.625 C-7.07087331 19.12983865 -6.57849529 23.53732202 -6 28 C-6.66 28 -7.32 28 -8 28 C-8.33 27.34 -8.66 26.68 -9 26 C-9.66 26.99 -10.32 27.98 -11 29 C-14.50623886 13.7228164 -14.50623886 13.7228164 -11.375 8.0625 C-8.55599012 5.61441247 -6.67852334 5.25080841 -3 5 C-2.87625 4.360625 -2.7525 3.72125 -2.625 3.0625 C-2.41875 2.381875 -2.2125 1.70125 -2 1 C-1.34 0.67 -0.68 0.34 0 0 Z " fill="#0B3062" transform="translate(17,9)"/>
<path d="M0 0 C2.27694716 2.27694716 2.92947387 4.06838152 4.0625 7.0625 C5.12070289 10.28488289 5.12070289 10.28488289 7 13 C11.71855985 13.21275486 15.89729368 12.76588994 20.4921875 11.72265625 C21.69230469 11.45646484 22.89242187 11.19027344 24.12890625 10.91601562 C25.36511719 10.63435547 26.60132813 10.35269531 27.875 10.0625 C35.58015652 8.32014824 43.12090899 6.67219027 51 6 C51 7.32 51 8.64 51 10 C49.50730305 10.54140852 48.0052294 11.05697868 46.5 11.5625 C45.24703125 11.99755859 45.24703125 11.99755859 43.96875 12.44140625 C40.82309091 13.03328684 38.38159105 12.63160883 35.24853516 12.15258789 C30.88091966 11.85619705 26.68183565 13.00138314 22.4375 13.9375 C16.51868925 15.21212662 11.06859741 16.27471017 5 16 C2.38592128 10.63809899 0.50771472 5.96564796 0 0 Z " fill="#5EB4DA" transform="translate(17,52)"/>
<path d="M0 0 C-2 3 -2 3 -4.9921875 3.80859375 C-6.27351563 4.01613281 -7.55484375 4.22367188 -8.875 4.4375 C-10.31932607 4.6804223 -11.76332244 4.92531078 -13.20703125 5.171875 C-13.97869629 5.30142578 -14.75036133 5.43097656 -15.54541016 5.56445312 C-18.12868896 6.0228348 -20.69364451 6.54124537 -23.26171875 7.078125 C-24.1429541 7.26189697 -25.02418945 7.44566895 -25.93212891 7.63500977 C-27.65014214 7.9958659 -29.3673132 8.36076164 -31.08349609 8.73022461 C-35.83041181 9.71130493 -40.1525773 10.18869162 -45 10 C-44.01 9.67 -43.02 9.34 -42 9 C-42 8.34 -42 7.68 -42 7 C-41.37134033 6.89453857 -40.74268066 6.78907715 -40.0949707 6.68041992 C-24.26320902 4.05998886 -24.26320902 4.05998886 -8.62109375 0.515625 C-5.69508976 -0.05998234 -2.9747526 -0.08736425 0 0 Z " fill="#A8DDEE" transform="translate(69,56)"/>
<path d="M0 0 C1.09658936 3.28976808 0.79953138 4.71303767 0 8 C0.99 8.33 1.98 8.66 3 9 C3 9.66 3 10.32 3 11 C-0.61973402 12.31626692 -3.09567131 13 -7 13 C-7.66 9.7 -8.32 6.4 -9 3 C-6.03 2.01 -3.06 1.02 0 0 Z " fill="#F0BD0C" transform="translate(76,12)"/>
<path d="M0 0 C0.99 0 1.98 0 3 0 C2.688288 2.52093298 2.37565098 5.0417457 2.0625 7.5625 C1.97548828 8.26697266 1.88847656 8.97144531 1.79882812 9.69726562 C1.24615509 14.13911927 0.64605404 18.57074664 0 23 C-0.99 23 -1.98 23 -3 23 C-2.57477229 15.1332874 -1.97537032 7.63809855 0 0 Z " fill="#ECEFF3" transform="translate(44,27)"/>
<path d="M0 0 C0.99 0.66 1.98 1.32 3 2 C1.02 4.31 -0.96 6.62 -3 9 C0.465 10.485 0.465 10.485 4 12 C4 12.66 4 13.32 4 14 C-0.97306516 13.50269348 -4.63799813 12.44697666 -9 10 C-8.06409496 8.8944811 -7.12620142 7.79064547 -6.1875 6.6875 C-5.66542969 6.07261719 -5.14335937 5.45773438 -4.60546875 4.82421875 C-3.12827531 3.14575321 -1.59960869 1.56117966 0 0 Z " fill="#EDF0F3" transform="translate(34,32)"/>
<path d="M0 0 C1.921875 1.3515625 1.921875 1.3515625 2.53125 3.515625 C2.57765625 4.32773438 2.6240625 5.13984375 2.671875 5.9765625 C2.72859375 6.79382813 2.7853125 7.61109375 2.84375 8.453125 C2.86953125 9.07960938 2.8953125 9.70609375 2.921875 10.3515625 C1.271875 10.6815625 -0.378125 11.0115625 -2.078125 11.3515625 C-5.12966207 5.00436539 -5.12966207 5.00436539 -4.890625 1.9765625 C-3.62684592 -0.55099565 -2.66205779 -0.83064209 0 0 Z " fill="#ECBC0C" transform="translate(42.078125,5.6484375)"/>
<path d="M0 0 C1 1 1 1 1.09765625 3.28515625 C1.08605469 4.20167969 1.07445312 5.11820313 1.0625 6.0625 C1.05347656 6.98160156 1.04445313 7.90070312 1.03515625 8.84765625 C1.02355469 9.55792969 1.01195312 10.26820312 1 11 C-0.65 10.67 -2.3 10.34 -4 10 C-5.31626692 6.38026598 -6 3.90432869 -6 0 C-3.49749232 -1.25125384 -2.59701335 -0.83774624 0 0 Z " fill="#F2BE07" transform="translate(55,4)"/>
<path d="M0 0 C4.95 1.98 4.95 1.98 10 4 C10 7 10 7 8.57421875 8.82421875 C7.95160156 9.43910156 7.32898437 10.05398437 6.6875 10.6875 C6.07261719 11.31011719 5.45773438 11.93273438 4.82421875 12.57421875 C3 14 3 14 0 14 C1.37154504 11.04590299 2.98863724 8.55991624 5 6 C3.02 5.01 1.04 4.02 -1 3 C-0.67 2.01 -0.34 1.02 0 0 Z " fill="#EEF1F5" transform="translate(51,30)"/>
<path d="M0 0 C-0.33 2.31 -0.66 4.62 -1 7 C-3.64 6.67 -6.28 6.34 -9 6 C-9 5.34 -9 4.68 -9 4 C-7.02 4 -5.04 4 -3 4 C-3 3.01 -3 2.02 -3 1 C-4.41750563 1.11509661 -5.83401169 1.24253658 -7.25 1.375 C-8.43335938 1.47941406 -8.43335938 1.47941406 -9.640625 1.5859375 C-12.085877 2.01507113 -13.84836903 2.78600638 -16 4 C-15.8125 2.125 -15.8125 2.125 -15 0 C-10.46768764 -2.88419877 -4.73315079 -2.36657539 0 0 Z " fill="#139ACE" transform="translate(286,32)"/>
<path d="M0 0 C2.27694716 2.27694716 2.92947387 4.06838152 4.0625 7.0625 C5.12070289 10.28488289 5.12070289 10.28488289 7 13 C13.0390846 13.2625689 18.9954896 12.60805169 25 12 C19.15241063 15.89839291 11.89388918 16.29973431 5 16 C2.38592128 10.63809899 0.50771472 5.96564796 0 0 Z " fill="#34A4D9" transform="translate(17,52)"/>
<path d="M0 0 C1.32 0.33 2.64 0.66 4 1 C4.33 4.63 4.66 8.26 5 12 C3.35 11.67 1.7 11.34 0 11 C-0.38909985 9.54536519 -0.76088029 8.08608793 -1.125 6.625 C-1.33382813 5.81289062 -1.54265625 5.00078125 -1.7578125 4.1640625 C-1.83773438 3.44992187 -1.91765625 2.73578125 -2 2 C-1.34 1.34 -0.68 0.68 0 0 Z " fill="#F5C105" transform="translate(28,7)"/>
<path d="M0 0 C0.99 0.33 1.98 0.66 3 1 C3.33 4.63 3.66 8.26 4 12 C2.35 11.67 0.7 11.34 -1 11 C-1.66 8.03 -2.32 5.06 -3 2 C-2.01 1.34 -1.02 0.68 0 0 Z " fill="#F5C105" transform="translate(17,9)"/>
<path d="M0 0 C-0.33 0.66 -0.66 1.32 -1 2 C-3.0625 2.625 -3.0625 2.625 -5 3 C-5 3.99 -5 4.98 -5 6 C-5.31088368 7.67099977 -5.64080332 9.33871537 -6 11 C-6.33 9.68 -6.66 8.36 -7 7 C-7.66 7 -8.32 7 -9 7 C-9 8.65 -9 10.3 -9 12 C-9.66 11.34 -10.32 10.68 -11 10 C-10.91565099 6.11994547 -10.44278268 4.46738172 -7.75 1.625 C-4.80867557 -0.11305534 -3.3450389 -0.38229016 0 0 Z " fill="#0E396C" transform="translate(15,14)"/>
<path d="M0 0 C0.33 0 0.66 0 1 0 C1.24979445 1.91408757 1.47408014 3.83151611 1.6875 5.75 C1.81511719 6.81734375 1.94273437 7.8846875 2.07421875 8.984375 C1.98892908 12.44982887 1.44875877 13.60167333 -1 16 C-4.47325181 17.1577506 -7.36067448 17.06866652 -11 17 C-11 16.67 -11 16.34 -11 16 C-8.03 15.34 -5.06 14.68 -2 14 C-2 12.68 -2 11.36 -2 10 C-2.66 9.67 -3.32 9.34 -4 9 C-3.01 8.67 -2.02 8.34 -1 8 C-0.67 5.36 -0.34 2.72 0 0 Z " fill="#0892CE" transform="translate(242,42)"/>
<path d="M0 0 C2 3 2 3 2.875 5.5625 C4.20501595 8.44420123 5.15787361 8.80814054 8 10 C8.33 10.66 8.66 11.32 9 12 C3.61267606 12.35915493 3.61267606 12.35915493 1.1875 10.9375 C-0.5816917 8.05092408 -0.75726838 5.33755975 -1 2 C-0.67 1.34 -0.34 0.68 0 0 Z " fill="#A8DAEB" transform="translate(18,59)"/>
<path d="M0 0 C0.33 1.98 0.66 3.96 1 6 C0.67 5.34 0.34 4.68 0 4 C-2.46800047 5.15173355 -4.04783565 6.04783565 -6 8 C-6.33 5.69 -6.66 3.38 -7 1 C-4.53721199 -0.231394 -2.7204945 -0.07159196 0 0 Z " fill="#264D66" transform="translate(27,12)"/>
<path d="M0 0 C-0.33 0.66 -0.66 1.32 -1 2 C-6.18899929 3.61037909 -10.58999807 4.22541675 -16 4 C-11.93477827 -0.06522173 -5.49940708 -0.27497035 0 0 Z " fill="#B2E6F4" transform="translate(40,66)"/>
<path d="M0 0 C0.66 0.33 1.32 0.66 2 1 C2.484375 2.77734375 2.484375 2.77734375 2.75 4.9375 C2.84796875 5.64777344 2.9459375 6.35804687 3.046875 7.08984375 C3 9 3 9 1 11 C-1.125 10.625 -1.125 10.625 -3 10 C-2.01 9.01 -1.02 8.02 0 7 C-0.66 5.68 -1.32 4.36 -2 3 C-1.34 3 -0.68 3 0 3 C0 2.01 0 1.02 0 0 Z " fill="#01255A" transform="translate(70,55)"/>
<path d="M0 0 C0.33 0 0.66 0 1 0 C0.98259766 0.8353125 0.98259766 0.8353125 0.96484375 1.6875 C0.90323567 6.89778343 1.25000656 11.8437951 2 17 C-1.38148609 13.61851391 -1.84739688 8.75493589 -2.25 4.125 C-2 2 -2 2 0 0 Z " fill="#BAEAF6" transform="translate(16,44)"/>
<path d="M0 0 C0.66 0 1.32 0 2 0 C1.67 2.31 1.34 4.62 1 7 C-1.64 6.67 -4.28 6.34 -7 6 C-7 5.34 -7 4.68 -7 4 C-5.02 4 -3.04 4 -1 4 C-0.67 2.68 -0.34 1.36 0 0 Z " fill="#058BC2" transform="translate(284,32)"/>
<path d="M0 0 C0.66 0 1.32 0 2 0 C2.33 2.97 2.66 5.94 3 9 C2.01 9.33 1.02 9.66 0 10 C0 6.7 0 3.4 0 0 Z M-2 3 C-1.01 4.485 -1.01 4.485 0 6 C-0.99 6.495 -0.99 6.495 -2 7 C-2 5.68 -2 4.36 -2 3 Z " fill="#03275C" transform="translate(6,21)"/>
<path d="M0 0 C2.9375 0.375 2.9375 0.375 6 1 C6.33 1.66 6.66 2.32 7 3 C2.545 3.495 2.545 3.495 -2 4 C-1.34 2.68 -0.68 1.36 0 0 Z " fill="#02285D" transform="translate(54,66)"/>
<path d="M0 0 C0.99 0 1.98 0 3 0 C2.67 3.3 2.34 6.6 2 10 C1.01 9.01 0.02 8.02 -1 7 C-0.6875 3.3125 -0.6875 3.3125 0 0 Z " fill="#E4E9F0" transform="translate(44,27)"/>
<path d="M0 0 C2.62187494 1.04874998 3.79371361 1.64931313 5.25 4.125 C5.4975 4.74375 5.745 5.3625 6 6 C4.35 5.67 2.7 5.34 1 5 C0.67 3.35 0.34 1.7 0 0 Z " fill="#B2E5F5" transform="translate(21,59)"/>
<path d="M0 0 C0.598125 0.350625 1.19625 0.70125 1.8125 1.0625 C1.8125 2.7125 1.8125 4.3625 1.8125 6.0625 C0.8225 6.0625 -0.1675 6.0625 -1.1875 6.0625 C-1.290625 5.44375 -1.39375 4.825 -1.5 4.1875 C-2.06275373 1.69723516 -2.06275373 1.69723516 -5.1875 0.0625 C-2.1875 -0.9375 -2.1875 -0.9375 0 0 Z " fill="#002D61" transform="translate(63.1875,8.9375)"/>
<path d="M0 0 C1.32 0 2.64 0 4 0 C3.67 0.66 3.34 1.32 3 2 C2.01 1.34 1.02 0.68 0 0 Z M0 2 C0.99 2 1.98 2 3 2 C3 2.66 3 3.32 3 4 C4.65 4 6.3 4 8 4 C8 4.33 8 4.66 8 5 C5.36 5.33 2.72 5.66 0 6 C-0.33 5.01 -0.66 4.02 -1 3 C-0.67 2.67 -0.34 2.34 0 2 Z " fill="#0F315E" transform="translate(35,68)"/>
<path d="M0 0 C-0.99 1.485 -0.99 1.485 -2 3 C-5 3.3125 -5 3.3125 -8 3 C-8.66 2.34 -9.32 1.68 -10 1 C-6.61981469 -0.04005702 -3.5219721 -0.08004482 0 0 Z " fill="#9FD0E3" transform="translate(69,56)"/>
<path d="M0 0 C0.8971875 0.309375 0.8971875 0.309375 1.8125 0.625 C0.8225 0.625 -0.1675 0.625 -1.1875 0.625 C-1.435 1.264375 -1.6825 1.90375 -1.9375 2.5625 C-3.1875 4.625 -3.1875 4.625 -5.3125 5.375 C-6.240625 5.49875 -6.240625 5.49875 -7.1875 5.625 C-5.69046729 2.17030914 -4.27938051 -0.73360809 0 0 Z " fill="#0294D3" transform="translate(252.1875,31.375)"/>
<path d="M0 0 C0.598125 0.20625 1.19625 0.4125 1.8125 0.625 C0.8225 0.955 -0.1675 1.285 -1.1875 1.625 C-1.5175 2.615 -1.8475 3.605 -2.1875 4.625 C-4.25 5.3125 -4.25 5.3125 -6.1875 5.625 C-5.875 3.75 -5.875 3.75 -5.1875 1.625 C-2.1875 -0.375 -2.1875 -0.375 0 0 Z " fill="#145898" transform="translate(52.1875,29.375)"/>
<path d="M0 0 C0.33 0 0.66 0 1 0 C1.05399736 1.45792884 1.09279177 2.91642712 1.125 4.375 C1.14820312 5.18710937 1.17140625 5.99921875 1.1953125 6.8359375 C1 9 1 9 -1 11 C-2.25 3.375 -2.25 3.375 0 0 Z " fill="#00225B" transform="translate(67,20)"/>
<path d="M0 0 C1.134375 0.020625 2.26875 0.04125 3.4375 0.0625 C2.125 1.5625 2.125 1.5625 0.4375 3.0625 C-0.5525 3.0625 -1.5425 3.0625 -2.5625 3.0625 C-2.8925 4.7125 -3.2225 6.3625 -3.5625 8.0625 C-3.8925 8.0625 -4.2225 8.0625 -4.5625 8.0625 C-4.60491723 5.72955225 -4.60342937 3.39547433 -4.5625 1.0625 C-3.5625 0.0625 -3.5625 0.0625 0 0 Z " fill="#214669" transform="translate(60.5625,5.9375)"/>
<path d="M0 0 C0.66 0 1.32 0 2 0 C2 2.31 2 4.62 2 7 C1.01 7 0.02 7 -1 7 C-1.04254356 5.00045254 -1.04080783 2.99958364 -1 1 C-0.67 0.67 -0.34 0.34 0 0 Z " fill="#B2E0EF" transform="translate(10,19)"/>
<path d="M0 0 C-0.33 0.99 -0.66 1.98 -1 3 C-2.32 3 -3.64 3 -5 3 C-5.33 3.66 -5.66 4.32 -6 5 C-6 3.35 -6 1.7 -6 0 C-3 -1 -3 -1 0 0 Z " fill="#15436C" transform="translate(50,9)"/>
<path d="M0 0 C0 0.99 0 1.98 0 3 C-3 2 -3 2 -5 1 C-5.33 1.99 -5.66 2.98 -6 4 C-6.33 2.68 -6.66 1.36 -7 0 C-3.98968256 -0.93423645 -3.13349732 -1.04449911 0 0 Z " fill="#214468" transform="translate(39,11)"/>
<path d="M0 0 C3.375 -0.1875 3.375 -0.1875 7 0 C9 3 9 3 9 6 C8.34 6 7.68 6 7 6 C6.6596875 5.0409375 6.6596875 5.0409375 6.3125 4.0625 C5.14749104 1.72806339 5.14749104 1.72806339 2.375 1.25 C1.59125 1.1675 0.8075 1.085 0 1 C0 0.67 0 0.34 0 0 Z " fill="#0A376B" transform="translate(58,7)"/>
<path d="M0 0 C1.98 0.495 1.98 0.495 4 1 C4 2.98 4 4.96 4 7 C3.01 5.68 2.02 4.36 1 3 C0.01 3.495 0.01 3.495 -1 4 C-0.67 2.68 -0.34 1.36 0 0 Z " fill="#007AC1" transform="translate(58,10)"/>
</svg>
